<?xml version="1.0" encoding="UTF-8"?>
<svg width="800" height="450" viewBox="0 0 800 450" fill="none" xmlns="http://www.w3.org/2000/svg">
  <!-- Background -->
  <rect width="800" height="450" rx="8" fill="#F8FAFB"/>
  
  <!-- Header -->
  <rect width="800" height="60" rx="8 8 0 0" fill="#00b894"/>
  <text x="30" y="38" font-family="Arial" font-size="22" font-weight="bold" fill="white">GreekDash</text>
  
  <!-- Navigation -->
  <text x="180" y="38" font-family="Arial" font-size="16" fill="white">Dashboard</text>
  <text x="280" y="38" font-family="Arial" font-size="16" fill="white">Events</text>
  <text x="350" y="38" font-family="Arial" font-size="16" fill="white">Members</text>
  <text x="440" y="38" font-family="Arial" font-size="16" fill="white">Finance</text>
  <text x="520" y="38" font-family="Arial" font-size="16" fill="white">Files</text>
  
  <!-- User menu -->
  <circle cx="740" cy="30" r="20" fill="white" opacity="0.9"/>
  <text x="732" y="36" font-family="Arial" font-size="18" fill="#00b894">A</text>
  
  <!-- Left sidebar -->
  <rect x="0" y="60" width="200" height="390" fill="#F1F5F9"/>
  <rect x="20" y="90" width="160" height="40" rx="6" fill="white"/>
  <text x="50" y="115" font-family="Arial" font-size="14" fill="#334155">Chapter Overview</text>
  
  <rect x="20" y="140" width="160" height="40" rx="6" fill="#00b894" opacity="0.1"/>
  <text x="50" y="165" font-family="Arial" font-size="14" font-weight="bold" fill="#00b894">Events</text>
  
  <rect x="20" y="190" width="160" height="40" rx="6" fill="white"/>
  <text x="50" y="215" font-family="Arial" font-size="14" fill="#334155">Members</text>
  
  <rect x="20" y="240" width="160" height="40" rx="6" fill="white"/>
  <text x="50" y="265" font-family="Arial" font-size="14" fill="#334155">Finances</text>
  
  <rect x="20" y="290" width="160" height="40" rx="6" fill="white"/>
  <text x="50" y="315" font-family="Arial" font-size="14" fill="#334155">Documents</text>
  
  <rect x="20" y="340" width="160" height="40" rx="6" fill="white"/>
  <text x="50" y="365" font-family="Arial" font-size="14" fill="#334155">Settings</text>
  
  <!-- Main content -->
  <rect x="220" y="80" width="560" height="50" rx="6" fill="white"/>
  <text x="240" y="110" font-family="Arial" font-size="18" font-weight="bold" fill="#1E293B">Upcoming Events</text>
  <text x="650" y="110" font-family="Arial" font-size="14" fill="#00b894">View All →</text>
  
  <!-- Event cards -->
  <rect x="220" y="150" width="270" height="130" rx="8" fill="white" stroke="#E2E8F0" stroke-width="1"/>
  <rect x="220" y="150" width="270" height="40" rx="8 8 0 0" fill="#00b894" opacity="0.1"/>
  <text x="240" y="175" font-family="Arial" font-size="14" font-weight="bold" fill="#00b894">Chapter Meeting</text>
  <text x="240" y="205" font-family="Arial" font-size="13" fill="#64748B">May 15, 2025 • 7:00 PM</text>
  <text x="240" y="225" font-family="Arial" font-size="13" fill="#64748B">Student Union, Room 305</text>
  <text x="240" y="255" font-family="Arial" font-size="13" fill="#64748B">24 attendees confirmed</text>
  
  <rect x="510" y="150" width="270" height="130" rx="8" fill="white" stroke="#E2E8F0" stroke-width="1"/>
  <rect x="510" y="150" width="270" height="40" rx="8 8 0 0" fill="#00b894" opacity="0.1"/>
  <text x="530" y="175" font-family="Arial" font-size="14" font-weight="bold" fill="#00b894">Philanthropy Event</text>
  <text x="530" y="205" font-family="Arial" font-size="13" fill="#64748B">May 22, 2025 • 10:00 AM</text>
  <text x="530" y="225" font-family="Arial" font-size="13" fill="#64748B">City Park</text>
  <text x="530" y="255" font-family="Arial" font-size="13" fill="#64748B">48 attendees confirmed</text>
  
  <!-- Member activity section -->
  <rect x="220" y="300" width="560" height="50" rx="6" fill="white"/>
  <text x="240" y="330" font-family="Arial" font-size="18" font-weight="bold" fill="#1E293B">Recent Member Activity</text>
  
  <!-- Activity feed -->
  <rect x="220" y="360" width="560" height="70" rx="8" fill="white" stroke="#E2E8F0" stroke-width="1"/>
  <circle cx="250" cy="395" r="20" fill="#00b894" opacity="0.2"/>
  <text x="244" y="400" font-family="Arial" font-size="14" fill="#00b894">JD</text>
  <text x="280" y="390" font-family="Arial" font-size="14" font-weight="bold" fill="#1E293B">John Doe</text>
  <text x="280" y="410" font-family="Arial" font-size="13" fill="#64748B">Submitted dues payment ($250) - 2 hours ago</text>
</svg>
