<?xml version="1.0" encoding="UTF-8"?>
<svg width="600" height="400" viewBox="0 0 600 400" fill="none" xmlns="http://www.w3.org/2000/svg">
  <!-- Background with Greek columns -->
  <rect width="600" height="400" rx="8" fill="#F8FAFB"/>
  
  <!-- Greek temple background -->
  <rect x="50" y="100" width="500" height="200" fill="#00b894" opacity="0.1" rx="8"/>
  
  <!-- Columns -->
  <g>
    <!-- Column 1 -->
    <rect x="100" y="120" width="30" height="160" rx="4" fill="white" stroke="#00b894" stroke-width="2"/>
    <rect x="100" y="120" width="30" height="20" rx="4" fill="#00b894" opacity="0.3"/>
    <rect x="100" y="260" width="30" height="20" rx="4" fill="#00b894" opacity="0.3"/>
    <line x1="115" y1="140" x2="115" y2="260" stroke="#00b894" opacity="0.2" stroke-width="2" stroke-dasharray="4 4"/>
    
    <!-- Column 2 -->
    <rect x="180" y="120" width="30" height="160" rx="4" fill="white" stroke="#00b894" stroke-width="2"/>
    <rect x="180" y="120" width="30" height="20" rx="4" fill="#00b894" opacity="0.3"/>
    <rect x="180" y="260" width="30" height="20" rx="4" fill="#00b894" opacity="0.3"/>
    <line x1="195" y1="140" x2="195" y2="260" stroke="#00b894" opacity="0.2" stroke-width="2" stroke-dasharray="4 4"/>
    
    <!-- Column 3 -->
    <rect x="260" y="120" width="30" height="160" rx="4" fill="white" stroke="#00b894" stroke-width="2"/>
    <rect x="260" y="120" width="30" height="20" rx="4" fill="#00b894" opacity="0.3"/>
    <rect x="260" y="260" width="30" height="20" rx="4" fill="#00b894" opacity="0.3"/>
    <line x1="275" y1="140" x2="275" y2="260" stroke="#00b894" opacity="0.2" stroke-width="2" stroke-dasharray="4 4"/>
    
    <!-- Column 4 -->
    <rect x="340" y="120" width="30" height="160" rx="4" fill="white" stroke="#00b894" stroke-width="2"/>
    <rect x="340" y="120" width="30" height="20" rx="4" fill="#00b894" opacity="0.3"/>
    <rect x="340" y="260" width="30" height="20" rx="4" fill="#00b894" opacity="0.3"/>
    <line x1="355" y1="140" x2="355" y2="260" stroke="#00b894" opacity="0.2" stroke-width="2" stroke-dasharray="4 4"/>
    
    <!-- Column 5 -->
    <rect x="420" y="120" width="30" height="160" rx="4" fill="white" stroke="#00b894" stroke-width="2"/>
    <rect x="420" y="120" width="30" height="20" rx="4" fill="#00b894" opacity="0.3"/>
    <rect x="420" y="260" width="30" height="20" rx="4" fill="#00b894" opacity="0.3"/>
    <line x1="435" y1="140" x2="435" y2="260" stroke="#00b894" opacity="0.2" stroke-width="2" stroke-dasharray="4 4"/>
  </g>
  
  <!-- Roof/pediment -->
  <path d="M75 120L275 70L525 120" stroke="#00b894" stroke-width="3" fill="#00b894" opacity="0.05"/>
  
  <!-- Greek letters -->
  <text x="150" y="200" font-family="Times New Roman" font-size="24" fill="#00b894">Α Β Γ Δ Ε Ζ Η Θ</text>
  <text x="350" y="200" font-family="Times New Roman" font-size="24" fill="#00b894">Φ Χ Ψ Ω</text>
  
  <!-- Text -->
  <text x="300" y="330" font-family="Arial" font-size="22" text-anchor="middle" font-weight="bold" fill="#1E293B">Building Stronger Chapters</text>
</svg>
